# xmcd
#
# Track frame offsets:
#	150
#	20526
#	35754
#	52052
#	74140
#	91197
#	103037
#	112944
#	138567
#	149283
#	169498
#
# Disc length: 2550 seconds
#
# Revision: 1
# Processed by: cddbd v1.5.2PL0 Copyright (c) Steve Scherf et al.
# Submitted via: audiograbber 1.83.01
#
DISCID=a609f40b
DTITLE=Cavalera Conspiracy - Inflikted
DYEAR=2008
DGENRE=Metal
TTITLE0=Inflikted
TTITLE1=Sanctuary
TTITLE2=Terrorize
TTITLE3=Black Ark
TTITLE4=Ultra-Violent
TTITLE5=Hex
TTITLE6=The doom of all fires
TTITLE7=Bloodbrawl
TTITLE8=Nevertrust
TTITLE9=Hearts of darkness
TTITLE10=Must kill
EXTD=
EXTT0=
EXTT1=
EXTT2=
EXTT3=
EXTT4=
EXTT5=
EXTT6=
EXTT7=
EXTT8=
EXTT9=
EXTT10=
PLAYORDER=
